<svg width="1890" height="224" viewBox="0 0 1890 224" fill="none" xmlns="http://www.w3.org/2000/svg">
<path fill-rule="evenodd" clip-rule="evenodd" d="M1304 30C1304 13.4315 1317.43 0 1334 0H1489.45C1506.02 0 1519.45 13.4315 1519.45 30V185.447C1519.45 202.015 1506.02 215.447 1489.45 215.447H1334C1317.43 215.447 1304 202.015 1304 185.447V30ZM1464 109.5C1464 138.495 1440.49 162 1411.5 162C1382.51 162 1359 138.495 1359 109.5C1359 80.5051 1382.51 57 1411.5 57C1440.49 57 1464 80.5051 1464 109.5ZM1333.03 9.85156C1322.71 9.85156 1314.35 18.2126 1314.35 28.5266V43.2557C1314.35 45.5998 1316.25 47.5 1318.6 47.5H1324.69C1335.08 47.5 1352 30.5835 1352 20.1871V14.0959C1352 11.7518 1350.1 9.85156 1347.76 9.85156H1333.03Z" fill="#323232"/>
<path d="M80.5 23C96.3333 23 110.083 25.6667 121.75 31C133.417 36.1667 142.417 43.6667 148.75 53.5C155.083 63.1667 158.25 74.5833 158.25 87.75C158.25 100.917 155.083 112.333 148.75 122C142.417 131.667 133.417 139.167 121.75 144.5C110.083 149.667 96.3333 152.25 80.5 152.25H50V198H0.5V23H80.5ZM77.5 113.25C87.6667 113.25 95.3333 111.083 100.5 106.75C105.667 102.25 108.25 95.9167 108.25 87.75C108.25 79.5834 105.667 73.25 100.5 68.75C95.3333 64.25 87.6667 62 77.5 62H50V113.25H77.5Z" fill="#323232"/>
<path d="M348.885 23V198H299.385V129.75H231.885V198H182.385V23H231.885V88.75H299.385V23H348.885Z" fill="#323232"/>
<path d="M472.051 201.5C453.551 201.5 436.884 197.583 422.051 189.75C407.384 181.917 395.801 171.083 387.301 157.25C378.967 143.417 374.801 127.833 374.801 110.5C374.801 93.1667 378.967 77.5834 387.301 63.75C395.801 49.9167 407.384 39.0833 422.051 31.25C436.884 23.4167 453.551 19.5 472.051 19.5C490.551 19.5 507.134 23.4167 521.801 31.25C536.634 39.0833 548.217 49.9167 556.551 63.75C565.051 77.5834 569.301 93.1667 569.301 110.5C569.301 127.833 565.051 143.417 556.551 157.25C548.217 171.083 536.634 181.917 521.801 189.75C507.134 197.583 490.551 201.5 472.051 201.5ZM472.051 160.5C480.884 160.5 488.884 158.417 496.051 154.25C503.217 150.083 508.884 144.25 513.051 136.75C517.217 129.083 519.301 120.333 519.301 110.5C519.301 100.667 517.217 92 513.051 84.5C508.884 76.8333 503.217 70.9167 496.051 66.75C488.884 62.5833 480.884 60.5 472.051 60.5C463.217 60.5 455.217 62.5833 448.051 66.75C440.884 70.9167 435.217 76.8333 431.051 84.5C426.884 92 424.801 100.667 424.801 110.5C424.801 120.333 426.884 129.083 431.051 136.75C435.217 144.25 440.884 150.083 448.051 154.25C455.217 158.417 463.217 160.5 472.051 160.5Z" fill="#323232"/>
<path d="M630.035 62.25H576.285V23H733.035V62.25H679.535V198H630.035V62.25Z" fill="#323232"/>
<path d="M837.285 201.5C818.785 201.5 802.118 197.583 787.285 189.75C772.618 181.917 761.035 171.083 752.535 157.25C744.202 143.417 740.035 127.833 740.035 110.5C740.035 93.1667 744.202 77.5834 752.535 63.75C761.035 49.9167 772.618 39.0833 787.285 31.25C802.118 23.4167 818.785 19.5 837.285 19.5C855.785 19.5 872.368 23.4167 887.035 31.25C901.868 39.0833 913.452 49.9167 921.785 63.75C930.285 77.5834 934.535 93.1667 934.535 110.5C934.535 127.833 930.285 143.417 921.785 157.25C913.452 171.083 901.868 181.917 887.035 189.75C872.368 197.583 855.785 201.5 837.285 201.5ZM837.285 160.5C846.118 160.5 854.118 158.417 861.285 154.25C868.452 150.083 874.118 144.25 878.285 136.75C882.452 129.083 884.535 120.333 884.535 110.5C884.535 100.667 882.452 92 878.285 84.5C874.118 76.8333 868.452 70.9167 861.285 66.75C854.118 62.5833 846.118 60.5 837.285 60.5C828.452 60.5 820.452 62.5833 813.285 66.75C806.118 70.9167 800.452 76.8333 796.285 84.5C792.118 92 790.035 100.667 790.035 110.5C790.035 120.333 792.118 129.083 796.285 136.75C800.452 144.25 806.118 150.083 813.285 154.25C820.452 158.417 828.452 160.5 837.285 160.5Z" fill="#323232"/>
<path d="M935.393 198H1060.39V224H935.393V198Z" fill="#323232"/>
<path d="M1243.46 198L1242.96 105.25L1197.96 180.75H1175.96L1131.21 107.75V198H1085.46V23H1126.21L1187.71 124L1247.71 23H1288.46L1288.96 198H1243.46Z" fill="#323232"/>
<path d="M1542.25 23H1625C1644.16 23 1661.16 26.5833 1676 33.75C1690.83 40.9167 1702.33 51.0833 1710.5 64.25C1718.66 77.4167 1722.75 92.8333 1722.75 110.5C1722.75 128.167 1718.66 143.583 1710.5 156.75C1702.33 169.917 1690.83 180.083 1676 187.25C1661.16 194.417 1644.16 198 1625 198H1542.25V23ZM1623 158.5C1638 158.5 1650 154.25 1659 145.75C1668.16 137.25 1672.75 125.5 1672.75 110.5C1672.75 95.5 1668.16 83.75 1659 75.25C1650 66.75 1638 62.5 1623 62.5H1591.75V158.5H1623Z" fill="#323232"/>
<path d="M1889.29 159.75V198H1748.79V23H1886.04V61.25H1797.79V90.75H1875.54V127.75H1797.79V159.75H1889.29Z" fill="#323232"/>
</svg>
